<?xml version="1.0" encoding="UTF-8" standalone="no"?>
<!-- Created with Inkscape (http://www.inkscape.org/) -->

<svg
   width="242mm"
   height="71mm"
   viewBox="0 0 242 71"
   version="1.1"
   id="svg1392"
   inkscape:version="1.1.1 (3bf5ae0d25, 2021-09-20)"
   sodipodi:docname="isdm_logo_expandido.svg"
   xmlns:inkscape="http://www.inkscape.org/namespaces/inkscape"
   xmlns:sodipodi="http://sodipodi.sourceforge.net/DTD/sodipodi-0.dtd"
   xmlns="http://www.w3.org/2000/svg"
   xmlns:svg="http://www.w3.org/2000/svg">
  <sodipodi:namedview
     id="namedview1394"
     pagecolor="#505050"
     bordercolor="#eeeeee"
     borderopacity="1"
     inkscape:pageshadow="0"
     inkscape:pageopacity="0"
     inkscape:pagecheckerboard="0"
     inkscape:document-units="mm"
     showgrid="false"
     inkscape:zoom="0.40567374"
     inkscape:cx="414.12589"
     inkscape:cy="200.90036"
     inkscape:window-width="1600"
     inkscape:window-height="837"
     inkscape:window-x="-8"
     inkscape:window-y="-8"
     inkscape:window-maximized="1"
     inkscape:current-layer="g1242"
     width="249mm" />
  <defs
     id="defs1389" />
  <g
     inkscape:label="Capa 1"
     inkscape:groupmode="layer"
     id="layer1">
    <g
       id="g65"
       transform="matrix(1.9486842,0,0,1.9486842,-7615.0629,-3415.9302)">
      <path
         id="path24"
         style="fill:#000000;stroke:none;stroke-width:0.326146;stroke-linecap:round;stroke-linejoin:round;stroke-miterlimit:4;stroke-dasharray:none;stroke-opacity:1;paint-order:stroke fill markers"
         d="m 3990.2454,1757.0084 c -0.1609,-2e-4 -0.3542,-2e-4 -0.5993,0.016 -1.6332,0.067 -2.2651,0.4788 -2.5376,1.6577 -0.1609,0.697 -0.049,1.2259 0.3568,1.6873 0.4322,0.4924 0.8756,0.7095 2.1659,1.0597 1.3157,0.3572 1.6267,0.5135 1.7136,0.8601 0.1753,0.6982 -0.5253,1.1748 -1.5867,1.078 -0.7501,-0.069 -1.0838,-0.2698 -1.2626,-0.7652 l -0.136,-0.3759 h -0.7247 c -0.8156,0 -0.8104,-0.012 -0.5678,0.8113 0.2404,0.8099 0.9465,1.3598 1.9647,1.5318 0.7081,0.1233 0.9426,0.1233 1.7011,0 0.9051,-0.1469 1.4451,-0.4382 1.7998,-0.9743 0.2518,-0.381 0.2927,-0.5512 0.2927,-1.2154 0,-1.2589 -0.3865,-1.5929 -2.5102,-2.1713 -0.8315,-0.2265 -1.3594,-0.4311 -1.5366,-0.5953 -0.2838,-0.2635 -0.3477,-0.6614 -0.1615,-1.0096 0.1532,-0.2855 0.8363,-0.4661 1.4325,-0.3766 0.4008,0.06 0.5812,0.1655 0.9409,0.5471 0.4161,0.4431 0.4793,0.4716 1.0064,0.4716 0.6273,0 0.6707,-0.075 0.4395,-0.7565 -0.2088,-0.6151 -0.5269,-0.9654 -1.1284,-1.2407 -0.3924,-0.1794 -0.5796,-0.2359 -1.0625,-0.2361 z m -28.1858,0.1 -0.5159,7e-4 v 3.4152 3.416 l 0.2614,0.2614 v 7e-4 c 0.2369,0.2364 0.3484,0.2616 1.1729,0.2616 h 0.9107 v -0.533 c 0,-0.5015 -0.016,-0.5333 -0.2743,-0.5333 -0.1503,0 -0.3655,-0.05 -0.4787,-0.1104 -0.1908,-0.101 -0.2061,-0.2386 -0.2061,-1.8118 0,-1.5971 0.012,-1.7018 0.2007,-1.7018 0.3105,0 0.6398,-0.3382 0.6738,-0.6928 0.031,-0.3059 0.012,-0.3209 -0.4218,-0.3524 l -0.4527,-0.033 v -0.5985 c 0,-0.7862 -0.1784,-0.9882 -0.87,-0.9882 z m 2.788,0 v 0.5335 0.5328 h 0.7464 0.7461 v -0.3656 c 0,-0.5267 -0.2265,-0.7007 -0.9132,-0.7007 z m 11.5112,0 v 3.4562 3.4562 l 0.2811,0.2212 v 8e-4 c 0.2295,0.1805 0.432,0.2203 1.1188,0.2203 h 0.8388 v -0.5326 c 0,-0.4676 -0.028,-0.5328 -0.221,-0.5328 -0.121,-10e-5 -0.313,-0.05 -0.4266,-0.1104 -0.1909,-0.101 -0.2063,-0.2386 -0.2063,-1.8118 0,-1.5596 0.015,-1.7018 0.1899,-1.7018 0.3687,0 0.664,-0.3099 0.664,-0.6984 0,-0.3546 -0.012,-0.3671 -0.4271,-0.3671 h -0.4268 v -0.5627 c 0,-0.8038 -0.1924,-1.0362 -0.8586,-1.0362 z m 39.8615,0 v 0.5335 0.5328 h 0.746 0.7454 v -0.3383 c 0,-0.5256 -0.2554,-0.728 -0.9218,-0.728 z m -68.2342,7e-4 c -0.6503,0.022 -0.6172,0.3332 -0.6172,3.9069 v 3.554 h 0.7447 0.7468 v -3.7302 -3.7307 h -0.5509 z m 19.4195,0 v 3.4152 3.416 l 0.2614,0.2614 h 7e-4 c 0.2371,0.2364 0.3478,0.2614 1.173,0.2614 h 0.9101 v -0.5326 c 0,-0.4928 -0.018,-0.5334 -0.2572,-0.5334 -0.5945,0 -0.5951,0.012 -0.5951,-1.8762 0,-1.5048 0.023,-1.7473 0.1648,-1.7473 0.259,0 0.6875,-0.4952 0.6875,-0.7943 0,-0.2436 -0.041,-0.2712 -0.4124,-0.2712 h -0.4133 l -0.049,-0.5848 c -0.066,-0.7852 -0.2804,-1.0142 -0.9536,-1.0142 z m 41.0778,1.5464 v 5e-4 c -0.1904,0 -0.3779,0.013 -0.5549,0.048 -1.4788,0.2806 -2.0672,1.1167 -2.0672,2.9489 0,1.6617 0.5958,2.5898 1.8852,2.93 h 5e-4 c 0.1759,0.05 0.6302,0.063 1.0082,0.038 0.9453,-0.064 1.5421,-0.439 1.9539,-1.2256 l 0.3057,-0.5848 -0.6481,-0.031 c -0.5579,-0.028 -0.6978,0 -1.0029,0.2388 -0.8999,0.6861 -1.9893,0.2839 -1.9893,-0.7344 v -0.2719 h 1.8789 1.8782 l -0.074,-0.773 c -0.093,-0.9908 -0.4747,-1.8088 -1.0096,-2.1628 -0.3984,-0.2643 -0.9941,-0.417 -1.5658,-0.4202 z m 6.6711,0.023 -0.6662,0.075 c -0.8622,0.097 -1.4355,0.3554 -1.8606,0.8398 -0.5405,0.6154 -0.6703,1.2437 -0.6703,3.2358 v 1.74 h 0.7455 0.7452 v -1.8097 -1.8105 l 0.2935,-0.3244 c 0.2321,-0.257 0.411,-0.3383 0.8536,-0.3898 l 0.5593,-0.066 v -0.745 z m 12.8953,0 -0.5588,0.067 c -1.2891,0.1552 -1.9559,0.5662 -2.3581,1.454 -0.1863,0.4119 -0.2242,0.7538 -0.2609,2.4251 l -0.04,1.9443 h 0.7586 0.7574 v -1.7316 c 8e-4,-1.1689 0.046,-1.8188 0.1343,-1.9984 0.1639,-0.3281 0.7589,-0.6393 1.2225,-0.6394 l 0.3461,-7e-4 v -0.7606 z m -70.05,8e-4 c -0.6633,-7e-4 -0.9267,0.05 -1.3322,0.2563 -0.8897,0.4517 -1.251,1.5833 -0.7451,2.3339 0.3244,0.481 0.7283,0.698 1.7921,0.961 1.0223,0.2524 1.3786,0.4419 1.3786,0.7355 0,0.7162 -1.7484,0.6774 -2.0229,-0.044 -0.097,-0.2553 -0.1496,-0.2713 -0.8388,-0.2713 h -0.7344 l 0.077,0.4221 c 0.1446,0.7913 0.7084,1.3099 1.619,1.4892 h 7e-4 c 0.6685,0.1314 1.0195,0.1258 1.7526,-0.028 1.0251,-0.2149 1.4555,-0.5914 1.6463,-1.4396 0.1715,-0.7638 -0.2085,-1.4733 -0.9569,-1.7868 -0.1994,-0.084 -0.7474,-0.248 -1.2177,-0.365 -0.9026,-0.2245 -1.2439,-0.4336 -1.2439,-0.7625 0,-0.5228 1.2323,-0.5148 1.7142,0.012 0.2717,0.2977 0.3594,0.3279 0.9463,0.3279 h 0.6475 l -0.071,-0.2928 c -0.258,-1.0774 -0.9881,-1.5452 -2.4127,-1.5464 z m -5.6994,5e-4 c -1.3477,0 -2.1134,0.5663 -2.3651,1.7401 -0.1247,0.5781 -0.1616,3.9598 -0.045,4.0769 l 6e-4,6e-4 c 0.039,0.039 0.3749,0.071 0.7461,0.071 h 0.6748 v -2.019 c 0,-1.981 0,-2.0246 0.2573,-2.318 0.2186,-0.2531 0.3342,-0.3014 0.7645,-0.2888 0.4117,0.012 0.5537,0.065 0.7554,0.2993 0.2352,0.2772 0.2478,0.358 0.2478,2.0868 0,1.9924 0.024,2.0677 0.6855,2.1923 0.7796,0.1464 0.7533,0.2161 0.7533,-1.9789 0,-2.2813 -0.055,-2.6447 -0.4859,-3.1343 -0.4423,-0.5038 -1.0598,-0.7272 -1.99,-0.7272 z m 46.4401,0 -0.5891,0.049 c -0.3245,0.027 -0.6482,0.1076 -0.7198,0.1783 -0.088,0.088 -0.1465,0.7691 -0.1825,2.1454 -0.063,2.3538 -0.08,2.3966 -0.9726,2.3966 -0.4373,0 -0.5774,-0.047 -0.7429,-0.2511 -0.1849,-0.2288 -0.203,-0.4435 -0.203,-2.3718 v -2.1194 h -0.7547 -0.7528 l 0.034,2.2111 c 0.032,2.0003 0.055,2.2522 0.2574,2.6378 0.2473,0.4716 0.6862,0.7731 1.4223,0.9777 h 6e-4 c 0.846,0.2352 2.0597,-0.017 2.6182,-0.5456 0.4787,-0.4521 0.5857,-1.0715 0.5857,-3.3815 z m -16.6896,7e-4 c -1.7499,0 -2.6023,0.9717 -2.6023,2.9573 0,1.5508 0.6029,2.5981 1.6571,2.8811 1.4605,0.392 2.6914,-0.047 3.2727,-1.1657 0.1665,-0.3215 0.2386,-0.6921 0.2725,-1.4072 0.1043,-2.2202 -0.7312,-3.2655 -2.6,-3.2655 z m 39.2584,0 c -1.4672,-0.012 -2.2733,0.6594 -2.5417,2.1026 -0.2096,1.1256 0.076,2.5683 0.6272,3.1777 0.2177,0.2408 0.7027,0.5036 1.142,0.6194 0.5469,0.1438 1.6001,0.032 2.137,-0.229 0.6469,-0.3132 1.0524,-0.943 1.2174,-1.8897 0.2082,-1.1954 -0.071,-2.504 -0.6593,-3.1064 -0.4895,-0.5008 -0.9711,-0.6746 -1.9226,-0.6746 z m -4.5557,0.024 -0.533,7e-4 v 2.8596 c 0,1.5728 0.032,2.8917 0.071,2.9306 l 6e-4,7e-4 c 0.039,0.039 0.3752,0.071 0.7465,0.071 h 0.6751 v -2.7179 c 0,-2.5756 -0.012,-2.7292 -0.2135,-2.9313 -0.1563,-0.1564 -0.355,-0.2127 -0.7461,-0.2127 z m -46.1481,0 v 2.1584 c 0,1.8739 0.029,2.2155 0.2005,2.5949 0.2334,0.5143 0.7139,0.8856 1.3894,1.0739 1.2051,0.249 2.4452,0.047 2.9747,-0.9451 0.2114,-0.4373 0.2299,-0.6399 0.2299,-2.6776 v -2.2045 h -0.4561 c -0.2508,0 -0.5629,0.076 -0.6927,0.1657 -0.2248,0.1606 -0.2369,0.2247 -0.2369,2.0199 0,1.132 -0.047,1.9556 -0.1183,2.1143 -0.2933,0.5262 -1.4569,0.644 -1.8509,-0.079 l -0.036,-2.0796 -0.033,-2.1408 h -0.6864 z m 31.6526,0 c -1.0071,0 -1.4765,0.1624 -1.9818,0.6869 -0.6348,0.6593 -0.6827,0.9671 -0.6827,4.4215 v 2.9905 h 0.4559 c 0.2505,0 0.5626,-0.076 0.6929,-0.166 0.2232,-0.1565 0.2367,-0.2422 0.2367,-1.5033 v -1.3374 l 0.3715,0.3265 c 0.4471,0.3923 1.0877,0.5835 1.629,0.4852 1.3601,-0.2462 1.943,-1.1283 1.943,-2.9396 0,-1.2252 -0.1508,-1.7253 -0.6897,-2.2847 -0.4977,-0.5164 -0.9727,-0.6796 -1.9748,-0.6796 z m -36.683,0.012 h -6e-4 -0.2123 l -0.4612,0.033 -0.029,2.7699 c -0.015,1.523 0,2.8297 0.023,2.904 v 6e-4 c 0.036,0.089 0.2849,0.1347 0.7482,0.1347 h 0.696 v -2.7687 -2.7685 l -0.2578,-0.1684 c -0.1221,-0.079 -0.302,-0.1286 -0.5072,-0.1387 z m 42.9446,1.1572 h 8e-4 c 0.4892,0 0.8386,0.3075 0.9431,0.8313 l 0.068,0.3409 h -1.0791 c -1.188,0 -1.2334,-0.032 -0.918,-0.6414 0.203,-0.3922 0.4596,-0.5308 0.9857,-0.5308 z m -6.2493,0.032 c 0.05,-10e-5 0.099,0 0.1477,0.012 v 0 c 0.668,0.064 1.0394,0.6493 1.0394,1.6537 0,0.7833 -0.1222,1.1766 -0.449,1.5046 v 6e-4 c -0.3388,0.3384 -1.2123,0.305 -1.5501,-0.059 -0.3659,-0.3947 -0.5386,-1.3162 -0.3803,-2.0231 0.1485,-0.6641 0.4782,-1.0046 1.0362,-1.0715 0.053,-0.012 0.1054,-0.012 0.1561,-0.012 z m 19.0524,0 c 0.3105,-0.012 0.613,0.1543 0.837,0.4867 0.1979,0.2925 0.2423,0.5041 0.2423,1.1455 0,0.7996 -0.1583,1.366 -0.4471,1.6056 -0.2544,0.2102 -0.7516,0.2524 -1.1078,0.093 -0.4478,-0.2008 -0.6301,-0.6891 -0.6301,-1.6836 0,-0.6631 0.042,-0.8751 0.2228,-1.1189 0.2547,-0.3438 0.5726,-0.5207 0.8829,-0.5283 z m -39.2259,0.022 c 0.3178,0.012 0.6309,0.1518 0.823,0.4451 0.1092,0.1665 0.2062,0.5776 0.2362,1.0076 0.071,0.9784 -0.1739,1.644 -0.6792,1.8552 -0.1961,0.082 -0.4173,0.1486 -0.4932,0.1477 -0.2996,0 -0.6792,-0.2871 -0.8561,-0.6394 -0.2324,-0.4645 -0.249,-1.6668 -0.03,-2.191 0.1749,-0.4185 0.5905,-0.6349 0.9991,-0.6252 z"
         sodipodi:nodetypes="cccccccccsccccscccccsccccccccccscsscsscccscccccccssccccccscsccsssscscccccccssccsccccccccccccscssssssccsccccscccccccsccccccccccscccccccccccccccccccccccccccscsccccccccscsccccccssscscccscscccccccscsccccccccccsscccsccccccccccsccscsccccscccscscsccccccscscscscccscscccccccscccccccsccsccccssscccccccccsccscccsccccccss" />
      <path
         id="path31"
         style="fill:#8b2a30;fill-opacity:1;stroke-width:0.106582"
         d="m 3967.7593,1767.2536 v 5.8736 5.8743 h 1.1195 1.1191 v -5.4886 -5.487 l -0.3092,-0.3455 c -0.288,-0.3222 -0.3622,-0.348 -1.1188,-0.3857 z m 20.2507,0 v 0.9191 0.9199 h 1.119 1.1193 v -0.5802 c 0,-0.454 -0.054,-0.6435 -0.2491,-0.8698 -0.2232,-0.26 -0.3353,-0.2935 -1.1187,-0.3389 z m 3.9437,0 v 5.8736 5.8743 h 1.1187 1.1189 v -5.4886 -5.487 l -0.3082,-0.3455 c -0.2878,-0.3222 -0.3627,-0.348 -1.1191,-0.3857 z m -41.5445,0.023 c -2.2732,0 -2.7112,0.085 -2.9015,0.5842 -0.066,0.1713 -0.1054,2.369 -0.1054,5.707 v 5.4286 h 2.7035 c 1.4867,0 2.9549,-0.048 3.263,-0.1054 1.8259,-0.3464 3.1545,-1.6646 3.6911,-3.6607 0.253,-0.9433 0.3004,-2.5606 0.1054,-3.6714 -0.2259,-1.2935 -0.6523,-2.2186 -1.3373,-2.904 -1.0739,-1.0735 -2.2488,-1.378 -5.419,-1.3781 z m 26.8595,0 c -0.7984,0 -1.3243,0.05 -1.5651,0.1516 -0.7091,0.2954 -0.6968,0.2018 -0.6968,6.1852 l -0.012,5.3883 h 1.0663 1.0654 v -4.711 c 0,-2.591 0.04,-4.6653 0.089,-4.6097 0.049,0.055 0.6108,2.1775 1.2477,4.7144 l 1.1584,4.6128 1.2297,-0.031 1.23,-0.03 1.191,-4.6896 1.1911,-4.6896 0.012,4.7162 0.012,4.7164 h 1.1188 1.1194 v -5.8619 -5.8618 h -1.7582 c -0.9675,0 -1.7623,0.012 -1.7623,0.027 0,0.015 -0.5243,2.0409 -1.1611,4.503 -0.9459,3.6579 -1.1764,4.4279 -1.2569,4.2101 -0.054,-0.1465 -0.5997,-2.1728 -1.2109,-4.503 l -1.1106,-4.2368 z m -27.5749,2.0778 h 1.5991 c 1.4228,0 1.6452,0.029 2.0249,0.2302 1.187,0.6319 1.6154,1.7551 1.5235,4.0015 -0.074,1.782 -0.5206,2.6285 -1.6607,3.136 -0.5436,0.2423 -3.4026,0.3468 -3.4868,0.1276 -0.028,-0.08 -0.042,-1.8005 -0.028,-3.8224 z m 49.6066,0.4775 c -1.8554,0 -2.8586,0.4533 -3.3572,1.5243 -0.429,0.9262 -0.424,0.9262 0.8119,0.9262 1.0335,0 1.0795,-0.012 1.3203,-0.2908 0.2229,-0.2591 0.3364,-0.2939 1.0483,-0.3304 0.9267,-0.047 1.5313,0.1649 1.6333,0.5724 0.1684,0.6714 -0.243,0.9245 -1.9741,1.2152 -0.722,0.1209 -1.5354,0.3189 -1.8066,0.4384 -1.1095,0.4894 -1.6744,1.4441 -1.5937,2.6944 0.079,1.2365 0.669,2.0231 1.8284,2.4376 0.4438,0.1644 0.7692,0.1889 1.6704,0.1522 1.2847,-0.051 2.0019,-0.2451 2.7305,-0.7351 1.1615,-0.7812 1.4259,-1.6072 1.4252,-4.4443 -7e-4,-2.1945 -0.073,-2.6098 -0.5535,-3.157 -0.6305,-0.7181 -1.5288,-1.0031 -3.1832,-1.0031 z m -36.7196,-0.112 c -1.1818,0 -1.4155,0.08 -2.0487,0.3727 -1.2191,0.5628 -1.8345,1.5567 -2.0741,3.3476 -0.1418,1.0634 0,2.4186 0.3432,3.3384 0.4045,1.0769 1.3795,1.9302 2.5363,2.219 v 7e-4 c 0.2198,0.055 0.8799,0.088 1.4661,0.075 0.8858,-0.029 1.1715,-3e-4 1.6516,-0.196 0.2463,-0.1146 0.4529,-0.2261 0.6316,-0.3465 0.6462,-0.5091 0.9408,-1.0276 1.2617,-1.7322 0.2227,-0.4939 0.023,-0.4655 -0.8796,-0.4655 -1.0055,0 -1.1606,-0.1093 -1.5073,0.3675 -0.3352,0.4617 -1.1161,0.6331 -1.6679,0.5589 -0.4983,-0.067 -0.8857,-0.3244 -1.2135,-0.8055 -0.2439,-0.358 -0.4188,-1.2046 -0.3042,-1.3911 0.043,-0.072 1.0893,-0.1103 2.9931,-0.1103 h 2.9247 v -0.419 c 0,-0.7218 -0.2205,-2.0448 -0.438,-2.6255 -0.2818,-0.7534 -0.9308,-1.4626 -1.6709,-1.8262 -0.5728,-0.2814 -0.899,-0.3608 -2.0041,-0.3608 z m 61.2937,0.1637 c -1.231,0 -1.4476,0.029 -1.9469,0.2543 -0.8079,0.3652 -1.522,1.1845 -1.8331,2.1051 -0.3331,0.9841 -0.4173,2.8705 -0.1751,3.9031 0.3782,1.6132 1.2802,2.6377 2.5931,2.947 v 6e-4 c 0.6561,0.1539 2.2846,0.1311 2.8613,-0.04 1.7701,-0.5256 2.6127,-1.9437 2.6331,-4.4269 0.012,-1.4062 -0.1334,-2.1412 -0.5929,-3.0163 -0.3771,-0.7187 -0.7535,-1.0666 -1.5678,-1.45 -0.5363,-0.2522 -0.7027,-0.2765 -1.9717,-0.2765 z m -5.169,0.024 -0.8794,0.06 c -1.6075,0.1104 -2.7089,0.6371 -3.3561,1.6054 -0.6421,0.9608 -0.7,1.3104 -0.748,4.5192 l -0.044,2.902 h 1.1166 1.116 l 0.045,-2.6913 c 0.041,-2.5431 0.056,-2.7167 0.285,-3.1523 0.3107,-0.5942 0.873,-0.8691 1.8006,-0.8691 h 0.6661 v -1.1872 z m -30.6955,0.03 v 4.5304 4.5294 h 1.119 1.1193 v -4.1516 c 0,-2.8155 -0.038,-4.2357 -0.1182,-4.4118 -0.1672,-0.3673 -0.5262,-0.4964 -1.3793,-0.4964 z m 19.9891,0 c -0.5609,7e-4 -0.8507,0.053 -1.3393,0.2018 -0.6435,0.1953 -0.8616,0.3277 -1.3804,0.8384 -0.8674,0.8547 -1.0867,1.4703 -1.1508,3.237 -0.1221,3.3459 1.0595,4.9903 3.585,4.9903 0.8391,0 1.5631,-0.2747 2.115,-0.8035 0.2719,-0.2606 0.5186,-0.4493 0.5477,-0.4202 0.029,0.029 0,0.4887 -0.058,1.0206 -0.122,1.0659 -0.2897,1.3913 -0.8968,1.7481 -0.7606,0.4467 -2.2063,0.1817 -2.4918,-0.4567 -0.099,-0.223 -0.1681,-0.2355 -1.3543,-0.2355 h -1.2489 l 0.1508,0.4273 c 0.3642,1.0319 1.1108,1.7568 2.2175,2.1519 0.7979,0.2852 2.8495,0.2181 3.7271,-0.1207 0.8513,-0.3288 1.4542,-0.8188 1.7759,-1.4435 l 0.2718,-0.529 0.03,-3.7815 c 0.029,-3.5363 0.016,-3.8271 -0.1841,-4.4886 -0.2842,-0.9372 -0.8387,-1.5665 -1.7323,-1.9704 -0.5845,-0.2644 -0.835,-0.3097 -1.9165,-0.35 -0.2652,-0.012 -0.4819,-0.016 -0.6691,-0.015 z m -45.3484,1.7011 c 0.8416,0.04 1.5811,0.8516 1.5894,1.6778 0,0.2386 -3e-4,0.2402 -1.6856,0.2402 -0.9283,0 -1.7154,-0.028 -1.748,-0.06 -0.1444,-1.0692 0.778,-1.9292 1.8442,-1.8574 z m 45.7155,0.1209 c 0.4517,-1e-4 0.9036,0.1419 1.2265,0.4253 0.4834,0.4245 0.6927,1.096 0.692,2.2164 -9e-4,1.3893 -0.3125,2.1805 -1.0121,2.5735 -0.6162,0.3459 -1.4273,0.3232 -2.0046,-0.056 -1.108,-0.7285 -1.1916,-3.7982 -0.1288,-4.7312 0.3233,-0.283 0.7754,-0.4256 1.227,-0.4256 z m 15.496,0 c 0.077,0 0.1532,-2e-4 0.2319,0.012 1.0409,0.117 1.5624,0.97 1.5624,2.5748 0,1.4422 -0.3154,2.331 -0.9511,2.656 -0.7513,0.3839 -1.5064,0.2776 -2.022,-0.2849 -0.4513,-0.4926 -0.6069,-1.0799 -0.6069,-2.3191 0,-0.9076 0.033,-1.0926 0.2993,-1.6373 0.2523,-0.5158 0.3776,-0.6483 0.7826,-0.8274 0.2495,-0.1103 0.4749,-0.1662 0.7038,-0.1724 z m -23.0623,2.6874 v 0.7299 c 0,0.4013 -0.067,0.8839 -0.147,1.0726 -0.1874,0.4375 -0.6577,0.8664 -1.1213,1.0213 -0.421,0.141 -1.0308,0.1476 -1.3586,0.015 -0.3557,-0.1437 -0.5708,-0.5382 -0.5708,-1.0479 0,-0.5858 0.3921,-0.9931 1.1408,-1.1859 0.2817,-0.074 0.8592,-0.2387 1.2842,-0.369 z"
         sodipodi:nodetypes="cccccccccccccccscccccccccccccccscsccccccccccccscccccccccccccssccccccsccccccscsccccccccccccccccccccccsccccscsccccccccccccccccccsccccccsccscccccscccccccscscccscccccccscccccccccccsccccccccsccscccccscccsc" />
      <g
         aria-label="NIVEL SUPERIOR  TERCIARIO           N° 8207"
         transform="matrix(1.1976376,0,0,1.3231634,-1023.3503,-457.51868)"
         id="text41"
         style="font-size:3.20046px;line-height:1.25;font-family:Arial;-inkscape-font-specification:Arial;fill:#a67f44;stroke-width:0.0800118">
        <path
           d="m 4150.4031,1695.5588 v -2.2909 h 0.45 l 0.9377,1.5299 v -1.5299 h 0.4297 v 2.2909 h -0.4641 l -0.9236,-1.4939 v 1.4939 z"
           style="font-weight:bold;-inkscape-font-specification:'Arial Bold'"
           id="path8461" />
        <path
           d="m 4152.6956,1695.5588 v -2.2909 h 0.4625 v 2.2909 z"
           style="font-weight:bold;-inkscape-font-specification:'Arial Bold'"
           id="path8463" />
        <path
           d="m 4154.1833,1695.5588 -0.8189,-2.2909 h 0.5017 l 0.5797,1.6955 0.561,-1.6955 h 0.4907 l -0.8204,2.2909 z"
           style="font-weight:bold;-inkscape-font-specification:'Arial Bold'"
           id="path8465" />
        <path
           d="m 4155.7335,1695.5588 v -2.2909 h 1.6987 v 0.3875 h -1.2361 v 0.5079 h 1.1501 v 0.386 h -1.1501 v 0.6235 h 1.2799 v 0.386 z"
           style="font-weight:bold;-inkscape-font-specification:'Arial Bold'"
           id="path8467" />
        <path
           d="m 4157.8807,1695.5588 v -2.2722 h 0.4626 v 1.8862 h 1.1501 v 0.386 z"
           style="font-weight:bold;-inkscape-font-specification:'Arial Bold'"
           id="path8469" />
        <path
           d="m 4160.5373,1694.8134 0.4501,-0.044 q 0.041,0.2266 0.1641,0.3328 0.125,0.1063 0.336,0.1063 0.2234,0 0.336,-0.094 0.114,-0.095 0.114,-0.2219 0,-0.081 -0.048,-0.1375 -0.047,-0.058 -0.1657,-0.1 -0.081,-0.028 -0.3703,-0.1 -0.372,-0.092 -0.522,-0.2266 -0.2109,-0.1891 -0.2109,-0.461 0,-0.1751 0.098,-0.3266 0.1,-0.1532 0.286,-0.2329 0.1875,-0.08 0.4516,-0.08 0.4313,0 0.6485,0.1891 0.2188,0.1891 0.2298,0.5048 l -0.4626,0.02 q -0.03,-0.1766 -0.1281,-0.2532 -0.097,-0.078 -0.2923,-0.078 -0.2016,0 -0.3156,0.083 -0.074,0.053 -0.074,0.1422 0,0.081 0.069,0.1391 0.088,0.073 0.425,0.1531 0.3376,0.08 0.4985,0.1657 0.1626,0.084 0.2532,0.2328 0.092,0.1469 0.092,0.3642 0,0.1969 -0.1094,0.3688 -0.1094,0.1719 -0.3094,0.2562 -0.2,0.083 -0.4985,0.083 -0.4345,0 -0.6673,-0.2001 -0.2329,-0.2016 -0.2782,-0.586 z"
           style="font-weight:bold;-inkscape-font-specification:'Arial Bold'"
           id="path8471" />
        <path
           d="m 4162.7861,1693.2679 h 0.4626 v 1.2408 q 0,0.2953 0.017,0.3829 0.03,0.1406 0.1407,0.2265 0.1125,0.084 0.3063,0.084 0.1969,0 0.2969,-0.08 0.1,-0.081 0.1203,-0.1984 0.02,-0.1172 0.02,-0.3891 v -1.2674 h 0.4626 v 1.2033 q 0,0.4125 -0.038,0.5829 -0.037,0.1703 -0.1391,0.2875 -0.1,0.1172 -0.2688,0.1875 -0.1687,0.069 -0.4406,0.069 -0.3282,0 -0.4986,-0.075 -0.1687,-0.077 -0.2672,-0.1969 -0.098,-0.1219 -0.1297,-0.2547 -0.045,-0.1969 -0.045,-0.5814 z"
           style="font-weight:bold;-inkscape-font-specification:'Arial Bold'"
           id="path8473" />
        <path
           d="m 4165.1005,1695.5588 v -2.2909 h 0.7423 q 0.4219,0 0.5501,0.034 0.1969,0.052 0.3297,0.225 0.1328,0.1719 0.1328,0.4454 0,0.2109 -0.077,0.3547 -0.077,0.1438 -0.1954,0.2266 -0.1172,0.081 -0.2391,0.1078 -0.1656,0.033 -0.4797,0.033 h -0.3016 v 0.8641 z m 0.4626,-1.9034 v 0.6501 h 0.2531 q 0.2735,0 0.3657,-0.036 0.092,-0.036 0.1438,-0.1125 0.053,-0.077 0.053,-0.1782 0,-0.125 -0.074,-0.2063 -0.073,-0.081 -0.1859,-0.1015 -0.083,-0.016 -0.3329,-0.016 z"
           style="font-weight:bold;-inkscape-font-specification:'Arial Bold'"
           id="path8475" />
        <path
           d="m 4167.2352,1695.5588 v -2.2909 h 1.6986 v 0.3875 h -1.2361 v 0.5079 h 1.1502 v 0.386 h -1.1502 v 0.6235 h 1.2799 v 0.386 z"
           style="font-weight:bold;-inkscape-font-specification:'Arial Bold'"
           id="path8477" />
        <path
           d="m 4169.3714,1695.5588 v -2.2909 h 0.9736 q 0.3672,0 0.5329,0.062 0.1672,0.061 0.2672,0.2188 0.1,0.1578 0.1,0.361 0,0.2578 -0.1516,0.4266 -0.1516,0.1672 -0.4532,0.211 0.1501,0.087 0.247,0.1922 0.098,0.1047 0.2641,0.3719 l 0.2797,0.4469 h -0.5532 l -0.3344,-0.4985 q -0.1782,-0.2672 -0.2438,-0.336 -0.066,-0.07 -0.1391,-0.095 -0.074,-0.026 -0.2329,-0.026 h -0.094 v 0.9563 z m 0.4626,-1.322 h 0.3422 q 0.3329,0 0.4157,-0.028 0.083,-0.028 0.1297,-0.097 0.047,-0.069 0.047,-0.1719 0,-0.1157 -0.062,-0.186 -0.061,-0.072 -0.1735,-0.091 -0.056,-0.01 -0.3375,-0.01 h -0.361 z"
           style="font-weight:bold;-inkscape-font-specification:'Arial Bold'"
           id="path8479" />
        <path
           d="m 4171.6671,1695.5588 v -2.2909 h 0.4625 v 2.2909 z"
           style="font-weight:bold;-inkscape-font-specification:'Arial Bold'"
           id="path8481" />
        <path
           d="m 4172.4765,1694.4274 q 0,-0.35 0.1047,-0.5876 0.078,-0.175 0.2126,-0.3141 0.1359,-0.139 0.2969,-0.2062 0.2141,-0.091 0.4938,-0.091 0.5063,0 0.8095,0.3141 0.3047,0.3141 0.3047,0.8736 0,0.5548 -0.3016,0.8689 -0.3016,0.3125 -0.8063,0.3125 -0.511,0 -0.8126,-0.311 -0.3017,-0.3125 -0.3017,-0.8595 z m 0.4767,-0.016 q 0,0.3891 0.1797,0.5907 0.1797,0.2 0.4563,0.2 0.2766,0 0.4532,-0.1984 0.1781,-0.2001 0.1781,-0.5986 0,-0.3938 -0.1734,-0.5875 -0.1719,-0.1938 -0.4579,-0.1938 -0.286,0 -0.461,0.1969 -0.175,0.1953 -0.175,0.5907 z"
           style="font-weight:bold;-inkscape-font-specification:'Arial Bold'"
           id="path8483" />
        <path
           d="m 4175.0613,1695.5588 v -2.2909 h 0.9736 q 0.3672,0 0.5329,0.062 0.1672,0.061 0.2672,0.2188 0.1,0.1578 0.1,0.361 0,0.2578 -0.1516,0.4266 -0.1516,0.1672 -0.4532,0.211 0.15,0.087 0.2469,0.1922 0.098,0.1047 0.2641,0.3719 l 0.2798,0.4469 h -0.5532 l -0.3345,-0.4985 q -0.1781,-0.2672 -0.2437,-0.336 -0.066,-0.07 -0.1391,-0.095 -0.073,-0.026 -0.2329,-0.026 h -0.094 v 0.9563 z m 0.4626,-1.322 h 0.3422 q 0.3329,0 0.4157,-0.028 0.083,-0.028 0.1297,-0.097 0.047,-0.069 0.047,-0.1719 0,-0.1157 -0.062,-0.186 -0.061,-0.072 -0.1735,-0.091 -0.056,-0.01 -0.3376,-0.01 h -0.3609 z"
           style="font-weight:bold;-inkscape-font-specification:'Arial Bold'"
           id="path8485" />
        <path
           d="m 4179.6651,1695.5588 v -1.9034 h -0.6798 v -0.3875 h 1.8206 v 0.3875 h -0.6783 v 1.9034 z"
           style="font-weight:bold;-inkscape-font-specification:'Arial Bold'"
           id="path8487" />
        <path
           d="m 4181.1043,1695.5588 v -2.2909 h 1.6987 v 0.3875 h -1.2361 v 0.5079 h 1.1502 v 0.386 h -1.1502 v 0.6235 h 1.2799 v 0.386 z"
           style="font-weight:bold;-inkscape-font-specification:'Arial Bold'"
           id="path8489" />
        <path
           d="m 4183.2406,1695.5588 v -2.2909 h 0.9736 q 0.3672,0 0.5329,0.062 0.1672,0.061 0.2672,0.2188 0.1,0.1578 0.1,0.361 0,0.2578 -0.1516,0.4266 -0.1516,0.1672 -0.4532,0.211 0.15,0.087 0.2469,0.1922 0.099,0.1047 0.2641,0.3719 l 0.2798,0.4469 h -0.5532 l -0.3345,-0.4985 q -0.1781,-0.2672 -0.2437,-0.336 -0.066,-0.07 -0.1391,-0.095 -0.074,-0.026 -0.2329,-0.026 h -0.094 v 0.9563 z m 0.4626,-1.322 h 0.3422 q 0.3329,0 0.4157,-0.028 0.083,-0.028 0.1297,-0.097 0.047,-0.069 0.047,-0.1719 0,-0.1157 -0.062,-0.186 -0.061,-0.072 -0.1735,-0.091 -0.056,-0.01 -0.3376,-0.01 h -0.3609 z"
           style="font-weight:bold;-inkscape-font-specification:'Arial Bold'"
           id="path8491" />
        <path
           d="m 4187.0161,1694.7165 0.4485,0.1422 q -0.1031,0.3751 -0.3438,0.5579 -0.2391,0.1813 -0.6079,0.1813 -0.4563,0 -0.7501,-0.311 -0.2938,-0.3125 -0.2938,-0.8532 0,-0.572 0.2954,-0.8877 0.2953,-0.3172 0.7767,-0.3172 0.4203,0 0.6829,0.2485 0.1563,0.1469 0.2344,0.4219 l -0.4579,0.1094 q -0.041,-0.1781 -0.1703,-0.2813 -0.1282,-0.1031 -0.3126,-0.1031 -0.2547,0 -0.4141,0.1828 -0.1578,0.1829 -0.1578,0.5923 0,0.4344 0.1562,0.6188 0.1563,0.1844 0.4064,0.1844 0.1844,0 0.3172,-0.1172 0.1328,-0.1172 0.1906,-0.3688 z"
           style="font-weight:bold;-inkscape-font-specification:'Arial Bold'"
           id="path8493" />
        <path
           d="m 4187.8475,1695.5588 v -2.2909 h 0.4626 v 2.2909 z"
           style="font-weight:bold;-inkscape-font-specification:'Arial Bold'"
           id="path8495" />
        <path
           d="m 4190.8167,1695.5588 h -0.5032 l -0.2,-0.5203 h -0.9158 l -0.1891,0.5203 h -0.4907 l 0.8923,-2.2909 h 0.4892 z m -0.8517,-0.9063 -0.3157,-0.8502 -0.3094,0.8502 z"
           style="font-weight:bold;-inkscape-font-specification:'Arial Bold'"
           id="path8497" />
        <path
           d="m 4191.0636,1695.5588 v -2.2909 h 0.9736 q 0.3672,0 0.5329,0.062 0.1672,0.061 0.2672,0.2188 0.1,0.1578 0.1,0.361 0,0.2578 -0.1516,0.4266 -0.1516,0.1672 -0.4532,0.211 0.15,0.087 0.2469,0.1922 0.099,0.1047 0.2641,0.3719 l 0.2798,0.4469 h -0.5532 l -0.3345,-0.4985 q -0.1781,-0.2672 -0.2437,-0.336 -0.066,-0.07 -0.1391,-0.095 -0.073,-0.026 -0.2329,-0.026 h -0.094 v 0.9563 z m 0.4626,-1.322 h 0.3422 q 0.3329,0 0.4157,-0.028 0.083,-0.028 0.1297,-0.097 0.047,-0.069 0.047,-0.1719 0,-0.1157 -0.062,-0.186 -0.061,-0.072 -0.1735,-0.091 -0.056,-0.01 -0.3375,-0.01 h -0.361 z"
           style="font-weight:bold;-inkscape-font-specification:'Arial Bold'"
           id="path8499" />
        <path
           d="m 4193.3592,1695.5588 v -2.2909 h 0.4626 v 2.2909 z"
           style="font-weight:bold;-inkscape-font-specification:'Arial Bold'"
           id="path8501" />
        <path
           d="m 4194.1687,1694.4274 q 0,-0.35 0.1047,-0.5876 0.078,-0.175 0.2126,-0.3141 0.1359,-0.139 0.2969,-0.2062 0.2141,-0.091 0.4938,-0.091 0.5063,0 0.8095,0.3141 0.3047,0.3141 0.3047,0.8736 0,0.5548 -0.3016,0.8689 -0.3016,0.3125 -0.8064,0.3125 -0.511,0 -0.8126,-0.311 -0.3016,-0.3125 -0.3016,-0.8595 z m 0.4767,-0.016 q 0,0.3891 0.1797,0.5907 0.1797,0.2 0.4563,0.2 0.2766,0 0.4532,-0.1984 0.1781,-0.2001 0.1781,-0.5986 0,-0.3938 -0.1734,-0.5875 -0.1719,-0.1938 -0.4579,-0.1938 -0.286,0 -0.461,0.1969 -0.175,0.1953 -0.175,0.5907 z"
           style="font-weight:bold;-inkscape-font-specification:'Arial Bold'"
           id="path8503" />
        <path
           d="m 4206.5377,1695.5588 v -2.2909 h 0.4501 l 0.9376,1.5299 v -1.5299 h 0.4297 v 2.2909 h -0.4641 l -0.9236,-1.4939 v 1.4939 z"
           style="font-weight:bold;-inkscape-font-specification:'Arial Bold'"
           id="path8505" />
        <path
           d="m 4208.7458,1693.7273 q 0,-0.2078 0.1454,-0.3532 0.1469,-0.1453 0.3531,-0.1453 0.2063,0 0.3516,0.1469 0.1469,0.1453 0.1469,0.3516 0,0.2063 -0.1469,0.3532 -0.1453,0.1453 -0.3516,0.1453 -0.2062,0 -0.3531,-0.1453 -0.1454,-0.1469 -0.1454,-0.3532 z m 0.2594,0 q 0,0.099 0.07,0.1688 0.07,0.07 0.1687,0.07 0.099,0 0.1688,-0.07 0.07,-0.07 0.07,-0.1688 0,-0.098 -0.07,-0.1687 -0.07,-0.07 -0.1688,-0.07 -0.098,0 -0.1687,0.07 -0.07,0.07 -0.07,0.1687 z"
           style="font-weight:bold;-inkscape-font-specification:'Arial Bold'"
           id="path8507" />
        <path
           d="m 4211.2931,1694.3227 q -0.1704,-0.072 -0.2485,-0.1969 -0.077,-0.1266 -0.077,-0.2766 0,-0.2563 0.1782,-0.4235 0.1797,-0.1672 0.5094,-0.1672 0.3266,0 0.5063,0.1672 0.1813,0.1672 0.1813,0.4235 0,0.1594 -0.083,0.2844 -0.083,0.1235 -0.2329,0.1891 0.1907,0.077 0.2891,0.2235 0.1001,0.1469 0.1001,0.3391 0,0.3172 -0.2032,0.5157 -0.2016,0.1985 -0.5376,0.1985 -0.3125,0 -0.5204,-0.1641 -0.2453,-0.1938 -0.2453,-0.5313 0,-0.186 0.092,-0.3407 0.092,-0.1563 0.2907,-0.2407 z m 0.091,-0.4422 q 0,0.1312 0.073,0.2047 0.075,0.073 0.1984,0.073 0.125,0 0.2,-0.073 0.075,-0.075 0.075,-0.2063 0,-0.1234 -0.075,-0.1969 -0.073,-0.075 -0.1953,-0.075 -0.1266,0 -0.2016,0.075 -0.075,0.075 -0.075,0.1985 z m -0.041,0.9814 q 0,0.1812 0.092,0.2828 0.094,0.1016 0.2328,0.1016 0.136,0 0.2251,-0.097 0.089,-0.098 0.089,-0.2828 0,-0.161 -0.091,-0.2579 -0.091,-0.099 -0.2297,-0.099 -0.161,0 -0.2407,0.111 -0.078,0.111 -0.078,0.2407 z"
           style="font-weight:bold;-inkscape-font-specification:'Arial Bold'"
           id="path8509" />
        <path
           d="m 4214.1794,1695.151 v 0.4078 h -1.5393 q 0.025,-0.2312 0.1501,-0.4375 0.125,-0.2079 0.4938,-0.5501 0.2969,-0.2766 0.3641,-0.3751 0.091,-0.1359 0.091,-0.2687 0,-0.1469 -0.08,-0.2251 -0.078,-0.08 -0.2172,-0.08 -0.1375,0 -0.2188,0.083 -0.081,0.083 -0.094,0.2751 l -0.4376,-0.044 q 0.039,-0.3625 0.2453,-0.5204 0.2063,-0.1578 0.5157,-0.1578 0.3392,0 0.5329,0.1828 0.1938,0.1829 0.1938,0.4548 0,0.1547 -0.056,0.2954 -0.055,0.139 -0.1751,0.2922 -0.08,0.1016 -0.2875,0.2922 -0.2079,0.1907 -0.2641,0.2532 -0.055,0.062 -0.089,0.1219 z"
           style="font-weight:bold;-inkscape-font-specification:'Arial Bold'"
           id="path8511" />
        <path
           d="m 4215.2186,1693.2585 q 0.3329,0 0.5204,0.2375 0.2235,0.2813 0.2235,0.933 0,0.6501 -0.225,0.9345 -0.186,0.2344 -0.5189,0.2344 -0.3344,0 -0.5391,-0.2563 -0.2047,-0.2578 -0.2047,-0.9173 0,-0.647 0.225,-0.9314 0.186,-0.2344 0.5188,-0.2344 z m 0,0.3641 q -0.08,0 -0.1422,0.052 -0.062,0.05 -0.097,0.1813 -0.045,0.1703 -0.045,0.5735 0,0.4032 0.041,0.5548 0.041,0.15 0.1016,0.2 0.062,0.05 0.1422,0.05 0.08,0 0.1422,-0.05 0.062,-0.052 0.097,-0.1829 0.045,-0.1687 0.045,-0.5719 0,-0.4032 -0.041,-0.5532 -0.041,-0.1516 -0.1031,-0.2016 -0.061,-0.052 -0.1407,-0.052 z"
           style="font-weight:bold;-inkscape-font-specification:'Arial Bold'"
           id="path8513" />
        <path
           d="m 4216.2563,1693.707 v -0.4079 h 1.5018 v 0.3188 q -0.186,0.1829 -0.3782,0.5251 -0.1922,0.3422 -0.2938,0.7282 -0.1,0.3845 -0.099,0.6876 h -0.4235 q 0.011,-0.475 0.1954,-0.9689 0.1859,-0.4938 0.4954,-0.8829 z"
           style="font-weight:bold;-inkscape-font-specification:'Arial Bold'"
           id="path8515" />
      </g>
    </g>
    <g
       id="g929"
       transform="matrix(0.02289155,0,0,0.02289155,-2.9553069,-7.7765088)">
      <g
         id="g1242"
         transform="matrix(62.022382,0,0,62.022382,-4827.7711,-4490.2939)">
        <path
           id="circle888-2"
           style="opacity:1;fill:#a67f44;fill-opacity:1;stroke-width:0;stroke-linecap:round;stroke-linejoin:bevel;paint-order:stroke fill markers"
           d="m 125.11801,91.866759 -6.91697,3.442851 0.13512,0.557999 c 0.4642,1.918009 0.77072,3.478307 0.6873,3.498493 l -17.46067,4.225538 -9.92105,4.9388 c -0.06302,0.0314 -0.599793,-0.91879 -1.273383,-2.22935 l -8.443122,2.04335 a 23.277831,23.277831 0 0 0 22.578055,17.61169 23.277831,23.277831 0 0 0 23.27753,-23.27806 23.277831,23.277831 0 0 0 -2.66281,-10.811311 z" />
        <circle
           style="opacity:1;fill:#8b2a30;fill-opacity:1;stroke-width:0;stroke-linecap:round;stroke-linejoin:bevel;paint-order:stroke fill markers"
           id="path886-0"
           cx="104.50304"
           cy="102.67808"
           r="18.945366" />
        <ellipse
           style="opacity:0.216216;fill:none;fill-opacity:1;stroke-width:0;stroke-linecap:round;stroke-linejoin:bevel;paint-order:stroke fill markers"
           id="circle900-6"
           cx="69.495598"
           cy="128.95943"
           rx="22.410841"
           ry="22.063829"
           transform="matrix(-0.27857398,0.96041477,0.96041477,0.27857398,0,0)" />
        <circle
           style="opacity:0.216216;fill:none;fill-opacity:1;stroke-width:0;stroke-linecap:round;stroke-linejoin:bevel;paint-order:stroke fill markers"
           id="circle890-7"
           cx="-90.519829"
           cy="-115.19475"
           r="20.340567"
           transform="rotate(172.65552)" />
        <g
           aria-label="N°8207"
           id="text898-4"
           style="font-size:3.56401px;line-height:1.25;font-family:'Product Sans';-inkscape-font-specification:'Product Sans';fill:#ffffff;stroke-width:0.297"
           transform="matrix(1.0254464,0,0,1.0254464,-2.6681357,-2.6222292)">
          <path
             d="m 100.67486,124.21667 -0.41606,-0.0931 -0.692542,-2.53041 -0.50639,2.26201 -0.314168,-0.0703 0.566077,-2.52863 0.521349,0.11672 0.631354,2.30984 0.46229,-2.06501 0.31417,0.0703 z"
             style="font-family:'Arial Rounded MT Bold';-inkscape-font-specification:'Arial Rounded MT Bold, ';letter-spacing:0.0714375px;word-spacing:0px"
             id="path10040" />
          <path
             d="m 102.94832,122.53338 q -0.0317,0.29063 -0.25431,0.4694 -0.22259,0.17876 -0.51495,0.14684 -0.29237,-0.0319 -0.47132,-0.25277 -0.17877,-0.22259 -0.14684,-0.51495 0.0317,-0.29063 0.25431,-0.4694 0.22259,-0.17876 0.51495,-0.14684 0.29409,0.0321 0.47113,0.2545 0.17876,0.22259 0.14703,0.51322 z m -0.28544,-0.0312 q 0.0193,-0.17645 -0.0836,-0.30847 -0.10269,-0.13375 -0.27914,-0.15302 -0.17646,-0.0193 -0.30559,0.0892 -0.12894,0.10671 -0.1482,0.28316 -0.0196,0.17992 0.085,0.31213 0.10652,0.13067 0.27779,0.14937 0.17646,0.0193 0.30558,-0.0892 0.12913,-0.10844 0.14821,-0.28317 z"
             style="font-family:'Arial Rounded MT Bold';-inkscape-font-specification:'Arial Rounded MT Bold, ';letter-spacing:0.0714375px;word-spacing:0px"
             id="path10042" />
          <path
             d="m 105.1343,123.79592 q -0.002,0.33586 -0.26609,0.55705 -0.26235,0.2212 -0.65912,0.21884 -0.42113,-0.002 -0.67043,-0.22151 -0.24755,-0.219 -0.24554,-0.55835 0.001,-0.21578 0.12761,-0.38906 0.12634,-0.17502 0.35491,-0.27633 l 6e-5,-0.0104 q -0.20816,-0.11261 -0.30831,-0.24546 -0.0984,-0.13285 -0.0972,-0.33123 0.002,-0.29236 0.24305,-0.48584 0.2413,-0.19347 0.61197,-0.19127 0.38806,0.002 0.6184,0.18988 0.23035,0.18757 0.22864,0.47471 -10e-4,0.17576 -0.11169,0.34565 -0.11063,0.16815 -0.3235,0.2626 l -7e-5,0.0104 q 0.24301,0.10586 0.37088,0.25976 0.12787,0.1539 0.12646,0.39057 z m -0.40492,-1.26758 q 10e-4,-0.1862 -0.14268,-0.29669 -0.14204,-0.11222 -0.36478,-0.11354 -0.21927,-0.001 -0.36085,0.10227 -0.13983,0.10359 -0.14089,0.28109 -7.4e-4,0.12529 0.0683,0.21794 0.0708,0.0909 0.21309,0.16311 0.0642,0.0317 0.18397,0.0829 0.12152,0.0512 0.23618,0.0849 0.17296,-0.11383 0.23982,-0.237 0.0669,-0.12316 0.0678,-0.285 z m 0.0462,1.29852 q 9.5e-4,-0.1601 -0.0698,-0.25624 -0.069,-0.0979 -0.27379,-0.19653 -0.0816,-0.0388 -0.17882,-0.0724 -0.0973,-0.0337 -0.25875,-0.0938 -0.15712,0.0843 -0.2537,0.22995 -0.0948,0.14562 -0.0959,0.33008 -10e-4,0.23493 0.15953,0.38903 0.16093,0.15409 0.40978,0.15557 0.25407,0.002 0.40625,-0.12811 0.15391,-0.1296 0.15526,-0.35757 z"
             style="font-family:'Arial Rounded MT Bold';-inkscape-font-specification:'Arial Rounded MT Bold, ';letter-spacing:0.0714375px;word-spacing:0px"
             id="path10044" />
          <path
             d="m 107.43918,124.30304 -1.74456,0.18329 -0.038,-0.36172 q 0.16536,-0.17486 0.33072,-0.34971 0.16709,-0.17504 0.3084,-0.34562 0.29848,-0.35683 0.40154,-0.55838 0.10288,-0.20329 0.0798,-0.42309 -0.0211,-0.20077 -0.16618,-0.29926 -0.14353,-0.10041 -0.38064,-0.0755 -0.1575,0.0166 -0.33513,0.0912 -0.17764,0.0747 -0.34044,0.20725 l -0.0173,0.002 -0.0382,-0.36345 q 0.11651,-0.0735 0.31547,-0.14513 0.20068,-0.0718 0.39279,-0.092 0.39633,-0.0416 0.64151,0.12683 0.24499,0.16674 0.27936,0.49385 0.0155,0.14711 -0.009,0.27918 -0.0231,0.13016 -0.0838,0.25202 -0.0562,0.1144 -0.13704,0.22788 -0.0791,0.1133 -0.19562,0.25328 -0.16609,0.20118 -0.34539,0.39325 -0.17949,0.19034 -0.33555,0.35372 l 1.3863,-0.14565 z"
             style="font-family:'Arial Rounded MT Bold';-inkscape-font-specification:'Arial Rounded MT Bold, ';letter-spacing:0.0714375px;word-spacing:0px"
             id="path10046" />
          <path
             d="m 109.45028,122.56767 q 0.14861,0.68183 0.004,1.04818 -0.14324,0.36429 -0.59213,0.46212 -0.45568,0.0993 -0.73693,-0.17778 -0.27956,-0.27748 -0.42557,-0.94741 -0.14713,-0.67503 -0.005,-1.04271 0.14213,-0.36939 0.59271,-0.46759 0.45569,-0.0993 0.73635,0.18326 0.282,0.2805 0.42616,0.94193 z m -0.27894,0.86941 q 0.0295,-0.1507 0.01,-0.34048 -0.0187,-0.19185 -0.0757,-0.4537 -0.0563,-0.25845 -0.11994,-0.44407 -0.0619,-0.18599 -0.15202,-0.30527 -0.0881,-0.11795 -0.20622,-0.16166 -0.11648,-0.0441 -0.27801,-0.009 -0.15983,0.0348 -0.25079,0.12412 -0.0893,0.0889 -0.12121,0.23659 -0.0304,0.13842 -0.008,0.34558 0.0237,0.20679 0.0763,0.44823 0.0578,0.26525 0.11543,0.43971 0.0576,0.17446 0.14959,0.30224 0.085,0.1204 0.20223,0.16787 0.11891,0.0471 0.28895,0.0101 0.15983,-0.0348 0.25079,-0.12412 0.091,-0.0893 0.1195,-0.23622 z"
             style="font-family:'Arial Rounded MT Bold';-inkscape-font-specification:'Arial Rounded MT Bold, ';letter-spacing:0.0714375px;word-spacing:0px"
             id="path10048" />
          <path
             d="m 111.26176,121.02668 -0.41159,2.46175 -0.35309,0.1184 0.45598,-2.56473 -1.39915,0.46919 -0.0968,-0.28874 1.68128,-0.5638 z"
             style="font-family:'Arial Rounded MT Bold';-inkscape-font-specification:'Arial Rounded MT Bold, ';letter-spacing:0.0714375px;word-spacing:0px"
             id="path10050" />
        </g>
        <text
           xml:space="preserve"
           style="font-size:2.65795px;line-height:1.25;font-family:'Franklin Gothic Book';-inkscape-font-specification:'Franklin Gothic Book, ';letter-spacing:0.790051px;fill:#ffffff;fill-opacity:1;stroke:none;stroke-width:0.0664489;stroke-opacity:1"
           x="-107.38792"
           y="93.61602"
           id="text1057"
           transform="matrix(0,-0.9359023,1.0684876,0,0,0)"><tspan
             sodipodi:role="line"
             id="tspan1055"
             x="-107.38792"
             y="93.61602"
             style="font-style:normal;font-variant:normal;font-weight:normal;font-stretch:normal;font-family:'Franklin Gothic Medium';-inkscape-font-specification:'Franklin Gothic Medium, ';fill:#ffffff;fill-opacity:1;stroke:none;stroke-width:0.0664489;stroke-opacity:1">SALTA</tspan></text>
        <g
           aria-label="EDUCAR PARA EL SIGLO XXI"
           id="text894-4"
           style="font-size:3.175px;line-height:1.25;font-family:'Franklin Gothic Medium';-inkscape-font-specification:'Franklin Gothic Medium, ';letter-spacing:0.489479px;word-spacing:0.846667px;fill:#a67f44;stroke-width:0.260311">
          <path
             d="m 84.17217,103.67813 0.119431,1.36991 -2.108153,0.1838 -0.11822,-1.35602 0.31352,-0.0273 0.0851,0.97608 0.571441,-0.0498 -0.0684,-0.78457 0.305799,-0.0267 0.0684,0.78457 0.589974,-0.0514 -0.08631,-0.98998 z"
             id="path875" />
          <path
             d="m 84.144904,102.87005 -2.115226,-0.0626 0.02305,-0.77945 q 0.01278,-0.43235 0.327352,-0.68516 0.313018,-0.25286 0.762407,-0.23957 0.449388,0.0133 0.74359,0.29186 0.294203,0.27857 0.279357,0.78064 z m -0.29988,-0.40126 0.0094,-0.31767 q 0.0076,-0.25569 -0.179322,-0.43958 -0.186883,-0.18389 -0.566539,-0.19511 -0.309923,-0.009 -0.528398,0.14102 -0.219979,0.14859 -0.227539,0.40428 l -0.01072,0.36261 z"
             id="path877" />
          <path
             d="m 82.413004,98.538698 1.343966,0.205633 q 0.272778,0.04174 0.410515,0.125543 0.137737,0.08381 0.218045,0.276454 0.07901,0.190879 0.04032,0.443735 -0.03916,0.25592 -0.156427,0.407358 -0.117036,0.149909 -0.287432,0.197549 -0.171929,0.0474 -0.420187,0.009 l -1.371551,-0.209855 0.05885,-0.384648 1.343967,0.205633 q 0.275843,0.0422 0.380778,-0.05936 0.103638,-0.103336 0.127085,-0.256582 0.02697,-0.176233 -0.0488,-0.296041 -0.0773,-0.120043 -0.340885,-0.160372 l -1.343967,-0.205632 z"
             id="path879" />
          <path
             d="m 84.306219,96.618167 0.131092,-0.330539 q 0.297391,0.117153 0.439885,0.376612 0.14141,0.257553 0.05015,0.5894 -0.07687,0.279528 -0.265474,0.41578 -0.188194,0.134758 -0.454754,0.16275 -0.266561,0.02799 -0.556552,-0.05175 -0.466379,-0.128251 -0.697029,-0.429639 -0.232144,-0.301798 -0.12568,-0.688952 0.08344,-0.303446 0.325789,-0.453861 0.242344,-0.150416 0.60502,-0.106957 l -0.05785,0.35068 q -0.487792,-0.03285 -0.57617,0.288538 -0.05673,0.206283 0.104452,0.374409 0.160094,0.166221 0.524826,0.26652 0.370712,0.101943 0.594259,0.03157 0.222052,-0.07078 0.277545,-0.272579 0.04439,-0.161439 -0.05142,-0.309984 -0.09582,-0.148545 -0.268094,-0.211998 z"
             id="path881" />
          <path
             d="m 85.99391,94.184633 -0.153185,0.377857 -0.53042,-0.0327 -0.305787,0.754277 0.404612,0.343026 -0.122315,0.301711 -1.69727,-1.445879 0.176482,-0.435326 z m -1.00508,0.325243 -0.990869,-0.06881 0.759053,0.640619 z"
             id="path883" />
          <path
             d="m 87.123435,92.073432 -0.195472,0.352507 -0.919986,-0.13434 -0.260128,0.469106 0.760601,0.421768 -0.184946,0.333526 -1.850662,-1.026228 0.445075,-0.802631 q 0.185698,-0.334882 0.424758,-0.407951 0.237704,-0.07382 0.47768,0.05925 0.356574,0.197727 0.305851,0.605683 z m -1.642678,0.539165 0.230055,-0.414874 q 0.09999,-0.18032 0.07294,-0.310549 -0.02706,-0.130228 -0.159924,-0.203906 -0.122022,-0.06766 -0.244707,-0.02224 -0.124041,0.04467 -0.210499,0.200586 l -0.245092,0.441989 z"
             id="path885" />
          <path
             d="m 89.136803,89.346184 -0.254543,0.283994 -1.575819,-1.412405 0.578414,-0.645335 q 0.2473,-0.275912 0.505982,-0.283471 0.258562,-0.0097 0.447891,0.159947 0.215881,0.193494 0.220456,0.457828 0.0046,0.264334 -0.194094,0.485988 l -0.352842,0.393666 z m -0.868143,-0.778116 0.301106,-0.335943 q 0.117959,-0.131607 0.115394,-0.258819 -0.0026,-0.127211 -0.109929,-0.223441 -0.09697,-0.08692 -0.224185,-0.08435 -0.126177,0.0014 -0.276212,0.168805 l -0.278342,0.310546 z"
             id="path887" />
          <path
             d="m 91.765098,86.788559 -0.305831,0.269646 -0.459963,-0.266174 -0.610499,0.538267 0.208787,0.487631 -0.244199,0.215307 -0.87272,-2.051743 0.352345,-0.310657 z m -1.044521,-0.157942 -0.855797,-0.50415 0.392981,0.912207 z"
             id="path889" />
          <path
             d="m 93.718771,85.404257 -0.33239,0.228007 -0.762994,-0.531284 -0.442335,0.303424 0.491968,0.717197 -0.314493,0.215729 -1.197034,-1.74505 0.756828,-0.519153 q 0.315771,-0.216607 0.562286,-0.175149 0.245639,0.04018 0.400859,0.266461 0.230637,0.336225 0.003,0.678519 z m -1.710478,-0.251702 0.391198,-0.268347 q 0.170031,-0.116634 0.204019,-0.245227 0.03399,-0.128593 -0.05195,-0.253879 -0.07892,-0.115058 -0.208977,-0.129247 -0.130928,-0.01547 -0.277947,0.08538 L 91.64787,84.62712 Z"
             id="path891" />
          <path
             d="m 95.952355,84.192172 -0.361787,0.18802 -0.382287,-0.369151 -0.722198,0.375326 0.08515,0.52357 -0.28888,0.15013 -0.352692,-2.201568 0.416812,-0.216616 z m -0.975701,-0.404943 -0.709125,-0.695484 0.16163,0.980016 z"
             id="path893" />
          <path
             d="m 99.973595,82.832359 -1.328787,0.353908 -0.544628,-2.044864 1.315305,-0.350317 0.081,0.304108 -0.94678,0.252164 0.147628,0.554286 0.761019,-0.202689 0.079,0.296617 -0.761019,0.20269 0.152416,0.572262 0.960262,-0.255756 z"
             id="path895" />
          <path
             d="m 102.06356,82.470841 -1.28639,0.202566 -0.32917,-2.090392 0.39664,-0.06246 0.27539,1.748885 0.88976,-0.140109 z"
             id="path897" />
          <path
             d="m 104.76678,81.80725 0.37428,-0.05877 q 0.0494,0.317873 0.49369,0.342105 0.20279,0.01106 0.31554,-0.06352 0.1143,-0.0745 0.1208,-0.193696 0.005,-0.08669 -0.0408,-0.162145 -0.0455,-0.07701 -0.20574,-0.127667 l -0.39829,-0.127301 q -0.20447,-0.06549 -0.29983,-0.139009 -0.0953,-0.07506 -0.1488,-0.203744 -0.052,-0.128596 -0.0442,-0.271011 0.0155,-0.283283 0.23527,-0.442079 0.2199,-0.160344 0.54807,-0.142444 0.27245,0.01486 0.47957,0.145708 0.20867,0.130932 0.25559,0.352408 l -0.36713,0.07003 q -0.0705,-0.244498 -0.37701,-0.261216 -0.17802,-0.0097 -0.2765,0.05944 -0.0969,0.06924 -0.10318,0.183789 -0.01,0.181115 0.28027,0.269913 l 0.35424,0.109373 q 0.32215,0.09986 0.42483,0.26693 0.10275,0.165522 0.0922,0.359021 -0.017,0.311146 -0.26206,0.477879 -0.24346,0.16527 -0.61652,0.144921 -0.31425,-0.01714 -0.54391,-0.161638 -0.22812,-0.144414 -0.29032,-0.427274 z"
             id="path899" />
          <path
             d="m 107.63244,82.573421 -0.3774,-0.05492 0.30473,-2.094094 0.37739,0.05492 z"
             id="path901" />
          <path
             d="m 110.39272,82.059109 -0.25745,1.051033 -0.16413,-0.0402 -0.0451,-0.304726 q -0.2548,0.264792 -0.63124,0.172582 -0.42011,-0.102906 -0.54972,-0.47303 -0.12809,-0.369756 -0.0252,-0.789868 0.10881,-0.444204 0.41444,-0.694951 0.3075,-0.251883 0.72309,-0.150083 0.31019,0.07598 0.4662,0.305729 0.15638,0.228243 0.14343,0.509181 l -0.33625,-0.02171 q 0.002,-0.398574 -0.33995,-0.482301 -0.21834,-0.05348 -0.4004,0.09027 -0.18054,0.144117 -0.27091,0.513033 -0.19069,0.778487 0.29718,0.897991 0.18973,0.04647 0.34529,-0.05428 0.15707,-0.100389 0.20982,-0.315716 l -0.42463,-0.104012 0.073,-0.298144 z"
             id="path903" />
          <path
             d="m 112.23504,83.845874 -1.22154,-0.451297 0.73336,-1.985013 0.37664,0.13915 -0.61355,1.660721 0.8449,0.312148 z"
             id="path905" />
          <path
             d="m 113.62481,84.53168 q -0.3765,-0.189896 -0.44447,-0.57839 -0.0666,-0.387796 0.14285,-0.803055 0.20805,-0.41249 0.57053,-0.576928 0.36319,-0.165822 0.72861,0.01849 0.3682,0.185707 0.44104,0.571445 0.0749,0.385052 -0.13522,0.801695 -0.22062,0.437406 -0.57961,0.594923 -0.35691,0.15683 -0.72373,-0.02818 z m 0.14101,-0.272674 q 0.18409,0.09285 0.38824,0.0048 0.20414,-0.08803 0.4059,-0.488065 0.16407,-0.325286 0.15172,-0.562443 -0.0116,-0.238541 -0.23312,-0.350245 -0.4374,-0.220614 -0.79276,0.483942 -0.17244,0.341896 -0.15107,0.574925 0.0235,0.232343 0.23109,0.337065 z"
             id="path907" />
          <path
             d="m 118.12277,87.544347 -0.34337,-0.282962 0.16912,-0.941409 -0.91327,0.328161 -0.27397,-0.225777 1.21783,-0.424713 0.20094,-1.14822 0.34217,0.281976 -0.14612,0.791616 0.76704,-0.279919 0.27517,0.226764 -1.06886,0.370699 z"
             id="path909" />
          <path
             d="m 119.7365,89.167472 -0.30962,-0.319536 0.27319,-0.916635 -0.94421,0.224121 -0.24704,-0.254961 1.25764,-0.286057 0.32791,-1.118598 0.30854,0.318422 -0.23361,0.770347 0.79351,-0.19251 0.24812,0.256075 -1.10357,0.249017 z"
             id="path911" />
          <path
             d="m 120.44409,90.037623 -0.24002,-0.296366 1.64446,-1.331849 0.24003,0.296366 z"
             id="path913" />
        </g>
        <path
           id="path1173"
           style="opacity:1;fill:#ffffff;fill-opacity:1;stroke:none;stroke-width:0;stroke-linecap:round;stroke-linejoin:bevel;stroke-opacity:1;paint-order:stroke fill markers"
           d="m 101.23484,105.28029 c -0.96566,-0.0297 -2.17228,0.30419 -2.472049,1.7397 -0.06825,0.41105 -0.134462,0.75462 -0.13036,1.21245 -0.0599,1.54061 1.077231,2.60915 2.353879,2.5828 1.77531,-0.0366 2.24258,-0.94752 2.3597,-1.77786 l -1.27179,-0.003 c -5.4e-4,0 -0.36747,0.53784 -0.86217,0.55005 -0.78139,0.0193 -1.09616,-0.34934 -1.14938,-1.18119 h 3.41 c 0.15735,-2.02965 -0.78382,-3.07807 -2.23783,-3.12278 z m -0.15791,1.09427 c 0.26182,-0.007 0.52462,0.0981 0.72704,0.30841 0.1546,0.16058 0.23968,0.48557 0.27926,0.70584 h -2.02056 c 0.14469,-0.67619 0.57789,-1.00204 1.01426,-1.01425 z"
           sodipodi:nodetypes="ccccccscccccsccc" />
        <path
           id="path1169"
           style="opacity:1;fill:#ffffff;fill-opacity:1;stroke:none;stroke-width:0;stroke-linecap:round;stroke-linejoin:bevel;stroke-opacity:1;paint-order:stroke fill markers"
           d="m 91.569207,102.4373 c -0.538821,-10e-4 -0.63839,0.48119 -0.617882,0.68571 l 0.01802,7.68958 3.862015,-0.0175 c 3.536825,-0.35307 3.86777,-4.70745 2.507023,-7.01023 -0.691408,-1.17009 -1.97303,-1.33715 -3.464049,-1.34228 z m 1.019025,1.37459 1.834031,0.0112 c 0.384051,0.002 0.717753,0.14015 1.016906,0.35293 1.288188,0.91605 1.060543,3.87773 0.05829,4.76975 -0.598562,0.53273 -1.953009,0.38122 -2.909227,0.40009 z"
           sodipodi:nodetypes="ccccscccccscc" />
        <path
           style="opacity:1;fill:#ffffff;fill-opacity:1;stroke:none;stroke-width:0;stroke-linecap:round;stroke-linejoin:bevel;stroke-opacity:1;paint-order:stroke fill markers"
           d="m 113.8468,102.35516 -2.92354,9.21839 h -0.12612 l -2.50119,-8.97463 -2.72641,0.004 c -0.5178,-0.0199 -1.18615,0.53168 -1.19866,1.19019 l -0.0144,13.7412 h 2.52557 v -12.84459 l 0.12612,0.54263 2.39945,9.6386 2.86154,-0.0594 2.82179,-9.70591 0.12612,-0.54263 v 7.01023 h 2.5261 l -0.0551,-9.2046 z"
           id="path1167"
           sodipodi:nodetypes="cccccccccccccccccc" />
        <path
           style="opacity:1;fill:#ffffff;fill-opacity:1;stroke:none;stroke-width:0;stroke-linecap:round;stroke-linejoin:bevel;stroke-opacity:1;paint-order:stroke fill markers"
           d="m 109.95616,89.112606 v 5.42e-4 c -1.72881,-0.0058 -3.41074,0.789966 -3.97858,2.549419 -0.76535,2.836528 1.63047,4.01812 3.93567,4.646287 0.83364,0.227135 2.5487,0.426492 2.75449,1.456204 0.26726,1.337439 -1.67906,1.871992 -3.06767,1.562716 -0.95503,-0.212698 -1.58816,-0.808036 -1.54736,-1.805416 l -2.43336,-0.02542 c -0.19547,2.797502 2.28142,4.018312 4.87679,3.897512 0.90961,-0.0424 1.98484,-0.12862 2.78153,-0.51614 0.96762,-0.47064 1.58468,-1.337331 1.76462,-2.493767 0.43141,-3.097319 -2.40914,-3.674826 -4.75016,-4.270047 -0.95182,-0.242007 -2.67267,-0.812426 -2.06189,-2.124427 0.48409,-1.039876 2.04638,-0.861858 2.58014,-0.765195 1.3778,0.31006 1.46585,1.598453 2.0513,1.614118 l 1.71322,0.06466 c 0.13378,-2.683507 -2.35597,-3.843867 -4.61874,-3.791007 z"
           id="path1147"
           sodipodi:nodetypes="cccscsccsscssccccc" />
        <path
           style="opacity:1;fill:#ffffff;fill-opacity:1;stroke:none;stroke-width:0;stroke-linecap:round;stroke-linejoin:bevel;stroke-opacity:1;paint-order:stroke fill markers"
           d="m 104.32688,89.112077 -1.64379,5.42e-4 c -0.72839,2.72e-4 -0.96118,0.57636 -0.97451,0.880187 -0.0284,0.656759 -0.004,2.579334 -0.004,3.064493 v 3.297657 l 0.0127,4.820104 2.60984,0.0201 z"
           id="path1145"
           sodipodi:nodetypes="cccscccc" />
      </g>
    </g>
  </g>
</svg>
